<?xml version="1.0" encoding="utf-8"?>
<!-- Generator: Adobe Illustrator 16.0.0, SVG Export Plug-In . SVG Version: 6.00 Build 0)  -->
<!DOCTYPE svg PUBLIC "-//W3C//DTD SVG 1.1//EN" "http://www.w3.org/Graphics/SVG/1.1/DTD/svg11.dtd">
<svg version="1.1" id="图层_1" xmlns="http://www.w3.org/2000/svg" xmlns:xlink="http://www.w3.org/1999/xlink" x="0px" y="0px"
	 width="390px" height="130px" viewBox="0 0 390 130" enable-background="new 0 0 390 130" xml:space="preserve">
<g>
	<defs>
		<rect id="SVGID_1_" width="390" height="130"/>
	</defs>
	<clipPath id="SVGID_2_">
		<use xlink:href="#SVGID_1_"  overflow="visible"/>
	</clipPath>
	<path clip-path="url(#SVGID_2_)" fill="#403C3B" d="M384.04,35.798h-2.769l-3.014-4.403c-0.602-0.884-1.15-1.481-1.655-1.799
		c-0.497-0.318-1.099-0.478-1.789-0.478h-1.691v6.672h-2.346V19.945h5.537c1.766,0,3.147,0.375,4.148,1.115
		c1.002,0.741,1.5,1.784,1.5,3.121c0,2.198-1.344,3.623-4.031,4.276v0.048c0.497,0.183,0.936,0.446,1.299,0.788
		c0.364,0.342,0.832,0.924,1.411,1.752L384.04,35.798z M373.122,21.737v5.597h2.768c1.069,0,1.945-0.27,2.614-0.82
		c0.667-0.549,1.001-1.266,1.001-2.15c0-0.828-0.305-1.473-0.914-1.935c-0.607-0.462-1.498-0.693-2.664-0.693H373.122z"/>
	<path clip-path="url(#SVGID_2_)" fill="#403C3B" d="M376.528,40.106c-7.415,0-13.494-5.279-13.494-11.769
		c0-6.497,6.072-11.784,13.494-11.784c7.438,0,13.472,5.287,13.472,11.784C390,34.827,383.966,40.106,376.528,40.106
		 M376.528,17.915c-6.576,0-11.921,4.674-11.921,10.422c0,5.741,5.345,10.407,11.921,10.407c6.569,0,11.921-4.667,11.921-10.407
		C388.449,22.589,383.098,17.915,376.528,17.915"/>
	<path clip-path="url(#SVGID_2_)" fill-rule="evenodd" clip-rule="evenodd" fill="#403C3B" d="M169.367,76.589h-0.379l-0.044,0.08
		l-5.9,13.799l-3.237-13.799l-0.03-0.08h-0.394h-7.356c-5.737-0.239-6.331,2.245-6.495,3.958l-2.019,21.036v0.079h0.438h8.105h0.423
		l0.03-0.079l1.551-16.291l3.808,16.291l0.008,0.079h0.438h7.289h0.438l0.015-0.079l6.932-16.308l-1.551,16.308v0.079h0.431h8.075
		h0.475v-0.079l2.383-24.914v-0.08h-0.445H169.367z"/>
	<path clip-path="url(#SVGID_2_)" fill-rule="evenodd" clip-rule="evenodd" fill="#403C3B" d="M211.786,101.662l-0.03-0.079
		c-0.304-0.551-0.489-1.004-0.638-1.41c0-0.104-0.015-0.15-0.06-0.231c0-0.054-0.029-0.15-0.029-0.214
		c-0.029-0.207-0.075-0.43-0.075-0.686V98.9c0-0.353,0-0.719,0.046-1.116v-0.039l0.764-7.955c0.067-0.438,0.03-0.868-0.044-1.33
		c-0.06-0.43-0.149-0.891-0.371-1.368c-0.149-0.446-0.395-0.9-0.653-1.234c-0.269-0.374-0.572-0.7-0.928-0.931
		c-0.728-0.542-1.618-0.948-2.695-1.251c-0.23-0.057-0.423-0.08-0.651-0.129c-0.231-0.063-0.461-0.086-0.685-0.109
		c-0.72-0.121-1.543-0.224-2.42-0.264c-0.162,0-0.334,0-0.549-0.039c-1.099-0.056-2.36-0.081-3.712-0.081
		c-0.897,0-1.744,0.018-2.552,0.081c-0.409,0.039-0.824,0.063-1.217,0.079c-0.401,0.048-0.765,0.103-1.152,0.175
		c-1.113,0.136-2.025,0.294-2.783,0.518c-0.126,0.072-0.275,0.104-0.408,0.16c-0.149,0.055-0.29,0.086-0.401,0.143
		c-0.594,0.255-1.121,0.518-1.596,0.812c-0.467,0.287-0.884,0.598-1.218,0.916c-0.452,0.494-0.897,1.107-1.254,1.824
		c-0.082,0.15-0.126,0.301-0.201,0.437c-0.029,0.145-0.089,0.263-0.149,0.384h9.821c0.156-0.191,0.304-0.344,0.497-0.471
		c0.067-0.056,0.127-0.136,0.23-0.184c0.06-0.023,0.134-0.079,0.23-0.103c0.407-0.207,0.861-0.328,1.454-0.406
		c0.09-0.017,0.216-0.017,0.335-0.017c0.341-0.063,0.683-0.063,1.091-0.063c0.623,0,1.128,0.063,1.528,0.207
		c0.09,0.041,0.135,0.08,0.216,0.104c0.06,0.046,0.118,0.095,0.179,0.111c0.192,0.175,0.333,0.413,0.445,0.699
		c0.074,0.28,0.081,0.638,0.074,1.067c-0.573,0.145-1.092,0.288-1.597,0.446c-0.534,0.143-1.017,0.246-1.521,0.342
		c-0.742,0.135-2.056,0.375-3.986,0.7c-0.349,0.049-0.793,0.121-1.232,0.208c-0.459,0.04-0.928,0.136-1.373,0.184
		c-1.44,0.214-2.671,0.494-3.666,0.852c-0.987,0.303-1.797,0.716-2.354,1.146c-0.563,0.461-1.038,0.963-1.329,1.529
		c-0.318,0.55-0.489,1.193-0.564,1.879c-0.111,1.051,0.186,2.006,0.847,2.819c0.126,0.142,0.274,0.317,0.408,0.453
		c0.163,0.144,0.364,0.295,0.52,0.438c0.883,0.638,2.02,1.074,3.526,1.33c0.29,0.04,0.601,0.087,0.928,0.119
		c0.667,0.056,1.387,0.12,2.159,0.12c1.611,0,3.103-0.144,4.469-0.438c0.26-0.057,0.497-0.12,0.757-0.175
		c0.215-0.049,0.46-0.119,0.705-0.191h0.03c0.861-0.256,1.736-0.668,2.649-1.202c0.06-0.056,0.134-0.104,0.245-0.159v0.136
		c0.022,0.214,0.045,0.358,0.119,0.469c0.029,0.167,0.17,0.406,0.341,0.693c0.03,0.088,0.06,0.143,0.089,0.167l0.104,0.206h0.029
		l0.045,0.081h0.394h8.313h0.504V101.662z M201.766,94.114c-0.059,0.446-0.119,0.805-0.237,1.162
		c-0.111,0.351-0.26,0.669-0.475,0.915c-0.29,0.391-0.713,0.741-1.27,1.027c-0.089,0.057-0.179,0.12-0.305,0.167
		c-0.119,0.049-0.245,0.12-0.363,0.176c-0.423,0.176-0.854,0.317-1.292,0.398c-0.349,0.055-0.741,0.104-1.105,0.104
		c-0.319,0-0.609-0.049-0.868-0.104c-0.313-0.081-0.602-0.183-0.802-0.344c-0.23-0.182-0.401-0.373-0.49-0.571
		c-0.083-0.239-0.134-0.463-0.083-0.758c0.008-0.237,0.083-0.462,0.23-0.652c0.148-0.208,0.349-0.414,0.616-0.581
		c0.319-0.263,1.024-0.518,2.056-0.78c0.216-0.032,0.445-0.079,0.616-0.151c0.245-0.048,0.504-0.089,0.75-0.144
		c0.986-0.19,1.967-0.397,2.872-0.629c0.06-0.031,0.148-0.049,0.245-0.049L201.766,94.114z"/>
	<path clip-path="url(#SVGID_2_)" fill-rule="evenodd" clip-rule="evenodd" fill="#403C3B" d="M221.814,76.589
		c-3.304,0-4.172,1.562-4.276,2.65l-0.186,2.183v0.08h0.43h8.915h0.469v-0.08l0.445-4.753v-0.08h-0.445H221.814z"/>
	<path clip-path="url(#SVGID_2_)" fill-rule="evenodd" clip-rule="evenodd" fill="#403C3B" d="M217.613,83.445h-0.468v0.086
		l-1.626,16.92c-0.066,0.582-0.126,1.067-0.274,1.481c-0.141,0.414-0.289,0.685-0.504,0.901c-0.246,0.199-0.454,0.341-0.75,0.421
		c-0.23,0.063-0.41,0.119-0.608,0.119c-0.09,0-0.202-0.023-0.409-0.023c-0.223-0.032-0.526-0.096-0.868-0.127l-0.653-0.113
		l-0.074,0.136l-1.825,5.041v0.057h0.148c0.853,0.142,1.677,0.254,2.449,0.35c0.363,0.063,0.756,0.08,1.127,0.103
		c1.076,0.119,2.116,0.183,3.045,0.183c1.187,0,2.219-0.086,3.117-0.262c0.853-0.128,1.61-0.373,2.219-0.662
		c0.854-0.444,1.529-0.931,2.026-1.544c0.112-0.103,0.192-0.238,0.305-0.374c0.066-0.111,0.169-0.23,0.229-0.381
		c0.231-0.463,0.454-1.093,0.64-1.872c0.186-0.819,0.318-1.76,0.408-2.867l1.692-17.5v-0.088h-0.417h-8.928V83.445z"/>
	<path clip-path="url(#SVGID_2_)" fill-rule="evenodd" clip-rule="evenodd" fill="#403C3B" d="M255.683,86.987
		c-0.193-0.254-0.415-0.509-0.645-0.74c-1.508-1.409-3.549-2.372-6.162-2.826c-0.527-0.096-1.092-0.175-1.662-0.23
		c-0.913-0.096-1.871-0.144-2.859-0.144c-2.188,0-4.179,0.223-5.899,0.716c-1.678,0.438-3.177,1.139-4.469,2.03
		c-1.047,0.75-1.951,1.602-2.612,2.484c-0.126,0.176-0.273,0.366-0.363,0.542c-0.698,1.162-1.121,2.404-1.262,3.806
		c-0.12,1.457,0.073,2.803,0.676,4.029c0.586,1.187,1.544,2.237,2.872,3.137c2.219,1.506,5.336,2.293,9.256,2.293
		c3.243,0,5.96-0.493,8.188-1.449c0.43-0.176,0.822-0.366,1.209-0.581c0.408-0.223,0.772-0.454,1.15-0.685
		c1.047-0.765,1.915-1.584,2.568-2.516c0.134-0.176,0.252-0.358,0.363-0.557c0.698-1.132,1.121-2.397,1.247-3.782
		c0.164-1.769-0.17-3.361-1.023-4.723C256.092,87.489,255.884,87.242,255.683,86.987 M247.459,92.497v0.024
		c-0.075,0.844-0.245,1.561-0.52,2.165c-0.275,0.615-0.609,1.067-1.063,1.466c-0.586,0.502-1.269,0.829-1.996,1.004
		c-0.141,0.023-0.26,0.023-0.378,0.056c-0.142,0-0.305,0.023-0.438,0.023c-0.697,0-1.321-0.199-1.914-0.541
		c-0.157-0.096-0.224-0.176-0.364-0.263c-0.089-0.089-0.23-0.168-0.334-0.271c-0.364-0.398-0.639-0.884-0.795-1.465
		c-0.163-0.613-0.2-1.306-0.104-2.103c0.104-1.146,0.401-2.069,0.898-2.786c0.104-0.144,0.179-0.255,0.334-0.414
		c0.11-0.111,0.207-0.224,0.364-0.326c0.593-0.486,1.261-0.837,1.988-1.004c0.127-0.017,0.259-0.048,0.4-0.088
		c0.149,0,0.326-0.023,0.49-0.023c0.653,0,1.307,0.185,1.856,0.565c0.118,0.063,0.236,0.136,0.362,0.223
		c0.098,0.088,0.201,0.216,0.304,0.302c0.321,0.303,0.565,0.71,0.722,1.172c0.044,0.095,0.073,0.183,0.073,0.271
		C247.518,91.041,247.518,91.741,247.459,92.497"/>
	<path clip-path="url(#SVGID_2_)" fill-rule="evenodd" clip-rule="evenodd" fill="#403C3B" d="M280.734,84.05h-0.076
		c-0.764-0.318-1.49-0.581-2.211-0.748c-9.442-1.194-16.908,1.066-17.985,12.221l-0.578,6.053v0.078h0.445h8.944h0.437v-0.078
		l0.587-6.053c0.193-2.062,0.609-3.669,1.174-4.8c0.132-0.23,0.222-0.43,0.363-0.606c0.133-0.167,0.246-0.35,0.379-0.492
		c0.504-0.525,1.113-0.838,1.782-0.987c0.126-0.018,0.229-0.049,0.318-0.049c0.118-0.022,0.215-0.022,0.289-0.022
		c0.274,0,0.712,0.071,1.277,0.221c0.118,0.024,0.259,0.081,0.379,0.121c0.141,0.032,0.288,0.078,0.414,0.118l0.653,0.224
		l0.172-0.271l3.206-4.911L280.734,84.05z"/>
	<path clip-path="url(#SVGID_2_)" fill-rule="evenodd" clip-rule="evenodd" fill="#403C3B" d="M304.888,85.467
		c-1.159-1.067-2.584-1.76-4.277-2.141c-0.333-0.064-0.696-0.129-1.075-0.168c-0.579-0.096-1.219-0.12-1.871-0.12
		c-1.15,0-2.189,0.12-3.154,0.326c-0.163,0-0.364,0.072-0.526,0.097c-0.172,0.063-0.327,0.119-0.491,0.135
		c-0.838,0.271-1.595,0.621-2.322,1.043l0.758-7.978l0.044-0.08h-0.467h-3.089c-7.853,0-6.725,4.18-6.858,5.375l-1.84,19.618v0.079
		h0.407h8.321h0.474v-0.079l0.149-1.862c0.289,0.238,0.497,0.445,0.728,0.612c0.505,0.415,1.002,0.7,1.462,0.899h0.044
		c0.625,0.256,1.314,0.471,2.063,0.605c0.788,0.144,1.627,0.24,2.538,0.24c1.033,0,2.028-0.121,2.985-0.304
		c0.86-0.223,1.729-0.502,2.539-0.877c1.127-0.532,2.084-1.28,2.952-2.212c0.149-0.167,0.291-0.383,0.453-0.542
		c0.127-0.199,0.26-0.413,0.415-0.638c0.41-0.604,0.772-1.272,1.047-1.989c0.03-0.143,0.075-0.296,0.12-0.455
		c0.288-0.851,0.496-1.767,0.579-2.762c0.148-1.48,0.029-2.787-0.291-3.918C306.342,87.242,305.747,86.28,304.888,85.467
		 M297.22,92.434c-0.126,1.163-0.401,2.095-0.824,2.756c-0.074,0.135-0.186,0.262-0.275,0.382c-0.09,0.104-0.186,0.19-0.288,0.318
		h-0.03c-0.497,0.445-1.091,0.756-1.729,0.884c-0.089,0-0.201,0.032-0.274,0.032c-0.112,0.039-0.215,0.039-0.306,0.039
		c-0.407,0-0.778-0.063-1.172-0.19c-0.423-0.19-0.823-0.455-1.157-0.787c-0.653-0.71-0.914-1.792-0.81-3.361
		c0.074-0.701,0.245-1.321,0.468-1.855c0.245-0.518,0.57-0.954,0.979-1.307c0.43-0.349,0.854-0.564,1.336-0.747
		c0.446-0.145,0.869-0.248,1.284-0.248c0.318,0,0.616,0.096,0.987,0.224c0.2,0.071,0.371,0.207,0.563,0.303
		c0.148,0.111,0.35,0.263,0.505,0.438c0.261,0.255,0.461,0.614,0.578,1.012c0.046,0.088,0.046,0.183,0.089,0.264
		C297.264,91.112,297.293,91.71,297.22,92.434"/>
	<path clip-path="url(#SVGID_2_)" fill-rule="evenodd" clip-rule="evenodd" fill="#403C3B" d="M316.006,76.589
		c-3.83,0-3.913,1.656-4.001,2.65l-0.268,2.15v0.057h0.446h8.907h0.444v-0.063l0.438-4.722V76.58h-0.415h-5.552V76.589z"/>
	<polygon clip-path="url(#SVGID_2_)" fill-rule="evenodd" clip-rule="evenodd" fill="#403C3B" points="311.998,83.445 
		311.551,83.445 311.551,83.531 309.829,101.566 309.829,101.662 310.253,101.662 319.166,101.662 319.59,101.662 319.59,101.566 
		321.306,83.531 321.306,83.445 320.896,83.445 	"/>
	<path clip-path="url(#SVGID_2_)" fill-rule="evenodd" clip-rule="evenodd" fill="#403C3B" d="M350.676,87.776
		c-0.178-0.287-0.378-0.534-0.579-0.789c-0.229-0.254-0.423-0.509-0.69-0.74c-1.477-1.409-3.511-2.372-6.146-2.826
		c-0.52-0.096-1.083-0.175-1.647-0.23c-0.913-0.096-1.855-0.144-2.858-0.144c-2.175,0-4.179,0.223-5.93,0.716
		c-1.656,0.438-3.133,1.139-4.439,2.03c-1.098,0.75-1.951,1.602-2.612,2.484c-0.142,0.176-0.274,0.366-0.371,0.542
		c-0.728,1.162-1.121,2.404-1.247,3.806c-0.163,1.457,0.059,2.803,0.638,4.029c0.609,1.187,1.582,2.237,2.888,3.137
		c2.235,1.506,5.308,2.293,9.294,2.293c3.176,0,5.915-0.493,8.149-1.449c0.407-0.176,0.816-0.366,1.217-0.581
		c0.394-0.223,0.765-0.454,1.129-0.685c1.054-0.765,1.93-1.584,2.583-2.516c0.141-0.176,0.274-0.358,0.349-0.557
		c0.72-1.132,1.143-2.397,1.262-3.782C351.849,90.729,351.529,89.131,350.676,87.776 M341.888,92.497v0.024
		c-0.089,0.844-0.261,1.561-0.541,2.165c-0.246,0.615-0.625,1.067-1.048,1.466c-0.594,0.502-1.27,0.829-2.025,1.004
		c-0.112,0.023-0.23,0.023-0.35,0.056c-0.141,0-0.304,0.023-0.445,0.023c-0.697,0-1.328-0.199-1.915-0.541
		c-0.126-0.096-0.245-0.176-0.364-0.263c-0.117-0.089-0.229-0.168-0.333-0.271c-0.394-0.398-0.646-0.884-0.787-1.465
		c-0.17-0.613-0.2-1.306-0.141-2.103c0.141-1.146,0.423-2.069,0.92-2.786c0.104-0.144,0.216-0.255,0.334-0.414
		c0.104-0.111,0.245-0.224,0.318-0.326h0.045c0.595-0.486,1.263-0.837,1.989-1.004c0.135-0.017,0.275-0.048,0.379-0.088
		c0.171,0,0.342-0.023,0.52-0.023c0.653,0,1.247,0.185,1.842,0.565c0.103,0.063,0.236,0.136,0.334,0.223
		c0.133,0.088,0.229,0.216,0.333,0.302c0.319,0.303,0.564,0.71,0.742,1.172c0,0.095,0.016,0.183,0.045,0.271
		C341.918,91.041,341.962,91.741,341.888,92.497"/>
	<path clip-path="url(#SVGID_2_)" fill-rule="evenodd" clip-rule="evenodd" fill="#403C3B" d="M154.083,34.11h7.333l1.411,3.01
		h5.723h0.2h0.208h7.015l1.974-3.01h7.326l-1.998,3.01h1.381h4.617h2.338l-0.386,4.22h-18.422l-0.23,2.349h17.294l-0.379,4.26
		h-17.294l-0.252,2.444h18.675l-0.394,4.26h-18.66l-0.246,2.755h18.66l-0.423,4.674l-16.165,0.039
		c3.897,2.445,9.188,3.663,15.816,3.631l-0.512,5.853c-11.029-0.438-18.318-2.548-21.992-6.307
		c-5.107,3.877-12.96,5.989-23.47,6.337l0.52-5.9c6.583,0.017,11.935-1.178,16.092-3.654H143.9l0.423-4.674h18.771l0.06-0.955
		c0.141-1.187-1.018-1.8-3.408-1.8h-15.149l0.364-4.26h18.764l0.074-0.859c0.097-1.043-1.054-1.593-3.34-1.593h-14.118l0.387-4.26
		h17.621l0.045-0.78c0.096-1.036-1.033-1.569-3.422-1.569h-15.209l0.431-4.22h0.29h6.264h2.783L154.083,34.11z M341.977,34.11
		h-8.017c-0.847,2.437-2.627,4.539-5.366,6.306l-0.623,6.585c3.771-1.402,6.412-2.978,8.439-4.77h7.697
		c-6.191,4.284-11.623,7.374-16.227,9.292l-0.652,6.992c7.296-3.058,13.791-6.665,19.358-10.837l-0.32,3.757
		c-5.976,4.515-12.365,8.408-19.254,11.712l-0.668,7.119c7.696-3.782,14.073-7.357,19.076-10.613l-0.438,4.714
		c-0.201,1.457-1.114,2.189-2.725,2.134l-2.479,0.047l-0.477,4.825l8.32-0.015c2.985,0,4.633-1.713,4.914-5.088l2.205-24.198
		c0.313-3.297-1.366-5.24-4.905-5.24h-9.219C341.093,35.981,341.554,35.105,341.977,34.11 M200.854,51.531h42.553l0.52-5.534
		h-16.745l0.408-4.49h18.28l0.491-5.128h-18.282l0.179-2.213h-8.773l-0.192,2.213h-18.586l-0.461,5.128h14.399
		c2.769,0,4.074,0.932,3.904,2.794l-0.178,1.696h-16.976L200.854,51.531z M237.89,53.928h-31.366c-3.859,0-5.915,1.735-6.265,5.175
		l-0.653,7.39l-0.229,2.532l-0.274,2.61h42.486L242.738,59C243.043,55.608,241.416,53.928,237.89,53.928 M230.759,59.104
		c2.508,0,3.651,1.052,3.437,3.122l-0.372,4.268h-26.016l0.668-7.39H230.759z M252.016,71.636h41.411
		c2.754,0,4.244-0.985,4.43-2.977l0.201-2.158h-17.599l0.81-8.862h16.402l0.447-5.151h-16.397l0.742-7.835h17.206l0.467-5.151
		h-17.197l0.497-5.327H275.1l-0.468,5.327h-8.787l2.271-4.571h-8.017c-0.882,3.042-2.725,5.67-5.5,7.891l-0.764,8.241
		c3.889-1.815,6.843-3.957,8.95-6.41h5.738c3.742,0,5.552,1.155,5.3,3.464l-0.378,4.372h-17.934l-0.467,5.151h12.715
		c3.488,0,5.075,1.37,4.824,4.14l-0.408,4.722H252.52L252.016,71.636z M320.912,71.636l1.017-10.908l2.315-1.059l0.549-6.083
		l-2.33,1.067l0.475-5.263h2.25l0.504-5.583h-2.228l0.869-9.546h-7.259l-0.868,9.546h-1.959l0.777-8.328h-5.202l-0.778,8.496
		c-0.684,3.105,0.141,4.889,2.501,5.415h4.126l-0.683,7.404l-7.154,2.452l-0.564,6.052l7.192-2.42l-0.825,8.758H320.912z"/>
</g>
<g>
	<defs>
		<path id="SVGID_3_" d="M62.729,18.775c-11.856,0-25.615,2.411-29.143,10.9l-14.355,34.27h28.754l14.296-34.262
			c2.101-4.259,5.248-7.07,14.6-9.722c-3.451-0.661-8.551-1.187-14.096-1.187C62.768,18.775,62.748,18.775,62.729,18.775"/>
	</defs>
	<clipPath id="SVGID_4_">
		<use xlink:href="#SVGID_3_"  overflow="visible"/>
	</clipPath>
	
		<linearGradient id="SVGID_5_" gradientUnits="userSpaceOnUse" x1="0.9736" y1="130.4482" x2="1.7425" y2="130.4482" gradientTransform="matrix(44.6939 19.8988 19.8988 -44.6939 -2609.5488 5844.0479)">
		<stop  offset="0" style="stop-color:#0B5DAB"/>
		<stop  offset="0.08" style="stop-color:#1162AE"/>
		<stop  offset="0.2122" style="stop-color:#156EB7"/>
		<stop  offset="0.3794" style="stop-color:#1C80C3"/>
		<stop  offset="0.3851" style="stop-color:#1A81C4"/>
		<stop  offset="0.4473" style="stop-color:#1D86C8"/>
		<stop  offset="0.5601" style="stop-color:#2395D3"/>
		<stop  offset="0.6552" style="stop-color:#27A5DE"/>
		<stop  offset="0.6879" style="stop-color:#28A8E0"/>
		<stop  offset="0.7466" style="stop-color:#1FB5E9"/>
		<stop  offset="0.8245" style="stop-color:#73CAF2"/>
		<stop  offset="0.9176" style="stop-color:#C5E7FA"/>
		<stop  offset="1" style="stop-color:#FFFFFF"/>
	</linearGradient>
	<polygon clip-path="url(#SVGID_4_)" fill="url(#SVGID_5_)" points="28.769,-4.204 92.528,26.248 67.345,86.924 3.586,56.473 	"/>
</g>
<g>
	<defs>
		<path id="SVGID_6_" d="M62.282,29.675l-2.205,5.303v28.887h28.74V29.604c0-5.342-5.167-8.249-11.936-9.65
			C67.523,22.605,64.383,25.424,62.282,29.675"/>
	</defs>
	<clipPath id="SVGID_7_">
		<use xlink:href="#SVGID_6_"  overflow="visible"/>
	</clipPath>
	
		<linearGradient id="SVGID_8_" gradientUnits="userSpaceOnUse" x1="1.8218" y1="131.5566" x2="2.564" y2="131.5566" gradientTransform="matrix(-38.72 0 0 38.72 159.3702 -5051.9575)">
		<stop  offset="0" style="stop-color:#90C33E"/>
		<stop  offset="0.2433" style="stop-color:#90C43E"/>
		<stop  offset="0.396" style="stop-color:#95C63D"/>
		<stop  offset="0.5238" style="stop-color:#9DC83B"/>
		<stop  offset="0.6378" style="stop-color:#A8CE4E"/>
		<stop  offset="0.7426" style="stop-color:#B4D466"/>
		<stop  offset="0.8408" style="stop-color:#C4DC85"/>
		<stop  offset="0.932" style="stop-color:#D4E6A8"/>
		<stop  offset="1" style="stop-color:#E2EEC6"/>
	</linearGradient>
	<rect x="60.078" y="19.954" clip-path="url(#SVGID_7_)" fill="url(#SVGID_8_)" width="28.74" height="43.912"/>
</g>
<g>
	<defs>
		<path id="SVGID_9_" d="M60.078,63.945l-14.325,34.27c-2.071,4.275-5.248,7.087-14.585,9.722
			c10.851,2.117,38.084,2.779,43.28-9.722l14.366-34.263l-0.018-0.007H60.078z"/>
	</defs>
	<clipPath id="SVGID_10_">
		<use xlink:href="#SVGID_9_"  overflow="visible"/>
	</clipPath>
	
		<linearGradient id="SVGID_11_" gradientUnits="userSpaceOnUse" x1="1.4453" y1="131.3779" x2="2.2158" y2="131.3779" gradientTransform="matrix(-43.7519 -20.4013 -20.4013 43.7519 2821.4521 -5622.8057)">
		<stop  offset="0" style="stop-color:#0B5DAB"/>
		<stop  offset="0.08" style="stop-color:#1162AE"/>
		<stop  offset="0.2122" style="stop-color:#156EB7"/>
		<stop  offset="0.3794" style="stop-color:#1C80C3"/>
		<stop  offset="0.3851" style="stop-color:#1A81C4"/>
		<stop  offset="0.4473" style="stop-color:#1D86C8"/>
		<stop  offset="0.5601" style="stop-color:#2395D3"/>
		<stop  offset="0.6552" style="stop-color:#27A5DE"/>
		<stop  offset="0.6879" style="stop-color:#28A8E0"/>
		<stop  offset="0.7466" style="stop-color:#1FB5E9"/>
		<stop  offset="0.8245" style="stop-color:#73CAF2"/>
		<stop  offset="0.9176" style="stop-color:#C5E7FA"/>
		<stop  offset="1" style="stop-color:#FFFFFF"/>
	</linearGradient>
	<polygon clip-path="url(#SVGID_10_)" fill="url(#SVGID_11_)" points="78.519,134.401 14.468,102.362 41.462,40.26 105.513,72.298 	
		"/>
</g>
<g>
	<defs>
		<path id="SVGID_12_" d="M19.232,64.032v34.271c0,5.334,5.144,8.239,11.928,9.634c9.353-2.644,12.514-5.446,14.585-9.722
			l2.234-5.28V64.032H19.232z"/>
	</defs>
	<clipPath id="SVGID_13_">
		<use xlink:href="#SVGID_12_"  overflow="visible"/>
	</clipPath>
	
		<linearGradient id="SVGID_14_" gradientUnits="userSpaceOnUse" x1="0.8022" y1="130.7344" x2="1.5444" y2="130.7344" gradientTransform="matrix(38.73 0 0 -38.73 -11.8299 5149.3364)">
		<stop  offset="0" style="stop-color:#90C33E"/>
		<stop  offset="0.2433" style="stop-color:#90C43E"/>
		<stop  offset="0.396" style="stop-color:#95C63D"/>
		<stop  offset="0.5238" style="stop-color:#9DC83B"/>
		<stop  offset="0.6378" style="stop-color:#A8CE4E"/>
		<stop  offset="0.7426" style="stop-color:#B4D466"/>
		<stop  offset="0.8408" style="stop-color:#C4DC85"/>
		<stop  offset="0.932" style="stop-color:#D4E6A8"/>
		<stop  offset="1" style="stop-color:#E2EEC6"/>
	</linearGradient>
	<rect x="19.232" y="64.032" clip-path="url(#SVGID_13_)" fill="url(#SVGID_14_)" width="28.747" height="43.904"/>
</g>
<g>
	<defs>
		<path id="SVGID_15_" d="M74.425,29.604L60.079,63.87l0.011,0.004h28.728l14.34-34.262c2.056-4.252,5.232-7.071,14.556-9.714
			c-3.466-0.66-8.595-1.194-14.125-1.194C91.72,18.704,77.988,21.108,74.425,29.604"/>
	</defs>
	<clipPath id="SVGID_16_">
		<use xlink:href="#SVGID_15_"  overflow="visible"/>
	</clipPath>
	
		<linearGradient id="SVGID_17_" gradientUnits="userSpaceOnUse" x1="0.7085" y1="130.3301" x2="1.4775" y2="130.3301" gradientTransform="matrix(44.692 19.898 19.898 -44.692 -2554.3794 5843.7295)">
		<stop  offset="0" style="stop-color:#0B5DAB"/>
		<stop  offset="0.08" style="stop-color:#1162AE"/>
		<stop  offset="0.2122" style="stop-color:#156EB7"/>
		<stop  offset="0.3794" style="stop-color:#1C80C3"/>
		<stop  offset="0.3851" style="stop-color:#1A81C4"/>
		<stop  offset="0.4473" style="stop-color:#1D86C8"/>
		<stop  offset="0.5601" style="stop-color:#2395D3"/>
		<stop  offset="0.6552" style="stop-color:#27A5DE"/>
		<stop  offset="0.6879" style="stop-color:#28A8E0"/>
		<stop  offset="0.7466" style="stop-color:#1FB5E9"/>
		<stop  offset="0.8245" style="stop-color:#73CAF2"/>
		<stop  offset="0.9176" style="stop-color:#C5E7FA"/>
		<stop  offset="1" style="stop-color:#FFFFFF"/>
	</linearGradient>
	<polygon clip-path="url(#SVGID_16_)" fill="url(#SVGID_17_)" points="69.614,-4.269 133.359,26.176 108.179,86.847 44.433,56.401 	
		"/>
</g>
<g>
	<defs>
		<path id="SVGID_18_" d="M117.683,19.898c-9.29,2.641-12.464,5.458-14.525,9.706l-2.234,5.303V63.81h28.725V29.524
			c0-5.325-5.13-8.213-11.895-9.626H117.683z"/>
	</defs>
	<clipPath id="SVGID_19_">
		<use xlink:href="#SVGID_18_"  overflow="visible"/>
	</clipPath>
	
		<linearGradient id="SVGID_20_" gradientUnits="userSpaceOnUse" x1="2.1895" y1="131.5566" x2="2.9316" y2="131.5566" gradientTransform="matrix(-38.7 0 0 38.7 214.3571 -5049.3877)">
		<stop  offset="0" style="stop-color:#90C33E"/>
		<stop  offset="0.2433" style="stop-color:#90C43E"/>
		<stop  offset="0.396" style="stop-color:#95C63D"/>
		<stop  offset="0.5238" style="stop-color:#9DC83B"/>
		<stop  offset="0.6378" style="stop-color:#A8CE4E"/>
		<stop  offset="0.7426" style="stop-color:#B4D466"/>
		<stop  offset="0.8408" style="stop-color:#C4DC85"/>
		<stop  offset="0.932" style="stop-color:#D4E6A8"/>
		<stop  offset="1" style="stop-color:#E2EEC6"/>
	</linearGradient>
	<rect x="100.924" y="19.898" clip-path="url(#SVGID_19_)" fill="url(#SVGID_20_)" width="28.725" height="43.912"/>
</g>
<g>
	<defs>
		<path id="SVGID_21_" d="M100.924,63.874L86.576,98.159c-2.064,4.268-5.218,7.054-14.586,9.738
			c10.897,2.069,38.1,2.738,43.318-9.738l14.34-34.286H100.924z"/>
	</defs>
	<clipPath id="SVGID_22_">
		<use xlink:href="#SVGID_21_"  overflow="visible"/>
	</clipPath>
	
		<linearGradient id="SVGID_23_" gradientUnits="userSpaceOnUse" x1="1.7109" y1="131.502" x2="2.4814" y2="131.502" gradientTransform="matrix(-43.7684 -20.409 -20.409 43.7684 2877.5381 -5625.0586)">
		<stop  offset="0" style="stop-color:#0B5DAB"/>
		<stop  offset="0.08" style="stop-color:#1162AE"/>
		<stop  offset="0.2122" style="stop-color:#156EB7"/>
		<stop  offset="0.3794" style="stop-color:#1C80C3"/>
		<stop  offset="0.3851" style="stop-color:#1A81C4"/>
		<stop  offset="0.4473" style="stop-color:#1D86C8"/>
		<stop  offset="0.5601" style="stop-color:#2395D3"/>
		<stop  offset="0.6552" style="stop-color:#27A5DE"/>
		<stop  offset="0.6879" style="stop-color:#28A8E0"/>
		<stop  offset="0.7466" style="stop-color:#1FB5E9"/>
		<stop  offset="0.8245" style="stop-color:#73CAF2"/>
		<stop  offset="0.9176" style="stop-color:#C5E7FA"/>
		<stop  offset="1" style="stop-color:#FFFFFF"/>
	</linearGradient>
	<polygon clip-path="url(#SVGID_22_)" fill="url(#SVGID_23_)" points="119.351,134.326 55.293,102.285 82.288,40.183 
		146.345,72.226 	"/>
</g>
<g>
	<defs>
		<path id="SVGID_24_" d="M60.078,63.945v34.27c0,5.358,5.145,8.249,11.92,9.683c9.367-2.685,12.522-5.471,14.585-9.738l2.235-5.295
			V63.945H60.078z"/>
	</defs>
	<clipPath id="SVGID_25_">
		<use xlink:href="#SVGID_24_"  overflow="visible"/>
	</clipPath>
	
		<linearGradient id="SVGID_26_" gradientUnits="userSpaceOnUse" x1="0.4355" y1="130.7344" x2="1.1777" y2="130.7344" gradientTransform="matrix(38.72 0 0 -38.72 43.2235 5147.9575)">
		<stop  offset="0" style="stop-color:#90C33E"/>
		<stop  offset="0.2433" style="stop-color:#90C43E"/>
		<stop  offset="0.396" style="stop-color:#95C63D"/>
		<stop  offset="0.5238" style="stop-color:#9DC83B"/>
		<stop  offset="0.6378" style="stop-color:#A8CE4E"/>
		<stop  offset="0.7426" style="stop-color:#B4D466"/>
		<stop  offset="0.8408" style="stop-color:#C4DC85"/>
		<stop  offset="0.932" style="stop-color:#D4E6A8"/>
		<stop  offset="1" style="stop-color:#E2EEC6"/>
	</linearGradient>
	<rect x="60.078" y="63.945" clip-path="url(#SVGID_25_)" fill="url(#SVGID_26_)" width="28.74" height="43.953"/>
</g>
</svg>
